<?xml version="1.0" encoding="utf-8"?>
<!-- Generator: Adobe Illustrator 18.1.1, SVG Export Plug-In . SVG Version: 6.00 Build 0)  -->
<svg version="1.1" id="Layer_1" xmlns="http://www.w3.org/2000/svg" xmlns:xlink="http://www.w3.org/1999/xlink" x="0px" y="0px"
	 viewBox="0 0 704.3 52.1" enable-background="new 0 0 704.3 52.1" xml:space="preserve">
<path fill="#404041" d="M180.2,51.3v-42h10.2v33.6h18.2v8.4H180.2z M30.6,51.3V31H10.2v20.2H0V0.9h10.2v19.9h20.4V0.9h10.2v50.4
	H30.6z M72.1,52c-13,0-22.3-9.7-22.3-21.6v-0.1c0-11.9,9.4-21.7,22.4-21.7s22.3,9.7,22.3,21.6v0.1C94.5,42.2,85.1,52,72.1,52z
	 M84.3,30.3c0-6.9-5.1-12.7-12.2-12.7C65,17.6,60,23.2,60,30.2v0.1c0,6.9,5.1,12.7,12.2,12.7c7.1,0,12.1-5.6,12.1-12.6V30.3z
	 M119.6,17.8v33.5h-10.2V17.8H97.1V9.3h34.8v8.5H119.6z M140,51.3v-42h29.7v8.2h-19.5v8.1h14.3v8.2h-14.3V43H170v8.2H140z M549.3,52
	c-13,0-22.3-9.7-22.3-21.6v-0.1c0-11.9,9.4-21.7,22.4-21.7s22.3,9.7,22.3,21.6v0.1C571.7,42.2,562.3,52,549.3,52z M561.5,30.3
	c0-6.9-5.1-12.7-12.2-12.7c-7.1,0-12.1,5.6-12.1,12.6v0.1c0,6.9,5.1,12.7,12.2,12.7c7.1,0,12.1-5.6,12.1-12.6V30.3z M674.3,51.3v-42
	H704v8.2h-19.5v8.1h14.3v8.2h-14.3V43h19.8v8.2H674.3z M492.9,51.3v-42h29.7v8.2h-19.5v8.1h14.3v8.2h-14.3V43h19.8v8.2H492.9z
	 M623.5,30.3c0,12.1,9.3,21.7,22.1,21.7c7.7,0,13.6-3,17.9-6.7V27.9h-15.5v7.7h5.9v4.3c-1,0.8-3.6,3.1-8,3.1
	c-7,0-12.3-5.7-12.3-12.7c0-7,5.1-12.6,12.1-12.6c5.4,0,9.3,3.4,10,4.1l6.3-7.4c-4.4-3.7-8.9-5.8-16.5-5.8
	C632.8,8.6,623.5,18.3,623.5,30.3z M615.7,23.2c0-8.7-5.9-13.9-15.8-13.9h-19.2v42h10.2V37.9h5.3l9,13.4h11.7l-10.1-15
	C612,34.3,615.7,30,615.7,23.2z M605.3,23.7c0,3.6-2.6,6-7.1,6h-7.4V17.6h7.2C602.5,17.6,605.3,19.7,605.3,23.7z M445,26
	c0-8.7,5.9-16.8,15.1-16.8c8.7,0,11.9,4.1,13.7,5.6l6.5-7.8C475,2.4,469.5,0,460.4,0c-15.3,0-26.1,11.6-26.1,26.1
	c0,15,10.4,26,26.1,26c12,0,19.2-5.5,21.5-7.2V24.7h-18.1v8.2h8v6.7c-1.3,0.7-4.9,3.3-11,3.3C451.3,42.9,445,35.4,445,26z
	 M407.4,17.8v33.5h-10.2V17.8h-12.3V9.3h34.8v8.5H407.4z M300.3,51.3l-3.8-9.4h-17.8l-3.8,9.4h-10.7L282,9h11.5l18,42.3H300.3z
	 M287.6,20.1l-5.7,13.6h11.3L287.6,20.1z M317.1,51.3v-42h10.2v42H317.1z M369.9,51.3l-20.3-26.7v26.7h-10v-42h9.4l19.7,25.9V9.3h10
	v42H369.9z M261.9,36.4c0,10-9.4,15.7-21.1,15.7c-10.4,0-17-3.8-17.7-4.2l3.3-8.2c0.8,0.4,6.3,3.2,13.7,3.2c8.9,0,11.3-2.7,11.3-5.9
	c0-2.4-1.6-4.5-6.8-5.9c-1-0.3-5.6-1.6-7.2-2c-6.9-1.9-12.1-5.7-12.1-13.3C225.3,6.7,233,0,244.2,0c10,0,15.7,3.5,16.3,3.8l-3.5,8.3
	c-0.7-0.3-5.9-2.9-12.9-2.9c-6.2,0-8.5,2.6-8.5,5.1c0,2.2,1.2,4.2,6,5.5c1.4,0.4,5.6,1.6,6.7,1.9C257.4,24.2,261.9,28.8,261.9,36.4z
	"/>
</svg>
