<?xml version="1.0" encoding="utf-8"?>
<!-- Generator: Adobe Illustrator 18.1.1, SVG Export Plug-In . SVG Version: 6.00 Build 0)  -->
<svg version="1.1" id="Layer_1" xmlns="http://www.w3.org/2000/svg" xmlns:xlink="http://www.w3.org/1999/xlink" x="0px" y="0px"
	 viewBox="0 276.7 792 58.6" enable-background="new 0 276.7 792 58.6" xml:space="preserve">
<path fill="#FFFFFF" d="M202.6,334.4v-47.2h11.5v37.8h20.5v9.4C234.6,334.4,202.6,334.4,202.6,334.4z M34.4,334.4v-22.8H11.5v22.7H0
	v-56.6h11.5v22.4h22.9v-22.4h11.5v56.7C45.9,334.4,34.4,334.4,34.4,334.4z M81.1,335.2c-14.6,0-25.1-10.9-25.1-24.3v-0.1
	c0-13.4,10.6-24.4,25.2-24.4s25.1,10.9,25.1,24.3v0.1C106.3,324.2,95.7,335.2,81.1,335.2z M94.8,310.8c0-7.8-5.7-14.3-13.7-14.3
	c-8,0-13.6,6.3-13.6,14.2v0.1c0,7.8,5.7,14.3,13.7,14.3s13.6-6.3,13.6-14.2C94.8,310.9,94.8,310.8,94.8,310.8z M134.5,296.7v37.7
	H123v-37.7h-13.8v-9.6h39.1v9.6H134.5z M157.4,334.4v-47.2h33.4v9.2h-21.9v9.1H185v9.2h-16.1v10.3h22.3v9.2h-33.7V334.4z
	 M617.7,335.2c-14.6,0-25.1-10.9-25.1-24.3v-0.1c0-13.4,10.6-24.4,25.2-24.4s25.1,10.9,25.1,24.3v0.1
	C642.9,324.2,632.3,335.2,617.7,335.2z M631.4,310.8c0-7.8-5.7-14.3-13.7-14.3c-8,0-13.6,6.3-13.6,14.2v0.1
	c0,7.8,5.7,14.3,13.7,14.3c8,0,13.6-6.3,13.6-14.2V310.8z M758.3,334.4v-47.2h33.4v9.2h-21.9v9.1h16.1v9.2h-16.1v10.3H792v9.2h-33.7
	V334.4z M554.3,334.4v-47.2h33.4v9.2h-21.9v9.1h16.1v9.2h-16.1v10.3H588v9.2h-33.7V334.4z M701.1,310.8c0,13.6,10.5,24.4,24.9,24.4
	c8.7,0,15.3-3.4,20.1-7.5v-19.6h-17.4v8.7h6.6v4.8c-1.1,0.9-4,3.5-9,3.5c-7.9,0-13.8-6.4-13.8-14.3s5.7-14.2,13.6-14.2
	c6.1,0,10.5,3.8,11.2,4.6l7.1-8.3c-4.9-4.2-10-6.5-18.6-6.5C711.6,286.4,701.1,297.3,701.1,310.8z M692.4,302.8
	c0-9.8-6.6-15.6-17.8-15.6H653v47.2h11.5v-15.1h6l10.1,15.1h13.2l-11.4-16.9C688.2,315.3,692.4,310.4,692.4,302.8z M680.7,303.4
	c0,4-2.9,6.7-8,6.7h-8.3v-13.6h8.1C677.5,296.5,680.7,298.9,680.7,303.4z M500.4,305.9c0-9.8,6.6-18.9,17-18.9
	c9.8,0,13.4,4.6,15.4,6.3l7.3-8.8c-6-5.2-12.1-7.9-22.4-7.9c-17.2,0-29.4,13-29.4,29.4c0,16.9,11.7,29.2,29.4,29.2
	c13.5,0,21.6-6.2,24.2-8.1v-22.7h-20.4v9.2h9v7.5c-1.5,0.8-5.5,3.7-12.4,3.7C507.5,324.9,500.4,316.5,500.4,305.9z M458.1,296.7
	v37.7h-11.5v-37.7h-13.8v-9.6H472v9.6H458.1z M337.7,334.4l-4.3-10.6h-20l-4.3,10.6h-12l20-47.6H330l20.2,47.6H337.7z M323.4,299.3
	l-6.4,15.3h12.7L323.4,299.3z M356.6,334.4v-47.2h11.5v47.2H356.6z M416,334.4l-22.8-30v30h-11.2v-47.2h10.6l22.2,29.1v-29.1h11.2
	v47.2H416z M294.5,317.6c0,11.2-10.6,17.7-23.7,17.7c-11.7,0-19.1-4.3-19.9-4.7l3.7-9.2c0.9,0.4,7.1,3.6,15.4,3.6
	c10,0,12.7-3,12.7-6.6c0-2.7-1.8-5.1-7.6-6.6c-1.1-0.3-6.3-1.8-8.1-2.2c-7.8-2.1-13.6-6.4-13.6-15c0-10.2,8.7-17.8,21.3-17.8
	c11.2,0,17.7,3.9,18.3,4.3l-3.9,9.3c-0.8-0.3-6.6-3.3-14.5-3.3c-7,0-9.6,2.9-9.6,5.7c0,2.5,1.3,4.7,6.7,6.2c1.6,0.4,6.3,1.8,7.5,2.1
	C289.5,303.9,294.5,309.1,294.5,317.6z"/>
</svg>
